<?xml version="1.0" encoding="utf-8"?>
<!-- Generator: Adobe Illustrator 24.1.0, SVG Export Plug-In . SVG Version: 6.00 Build 0)  -->
<svg version="1.1" id="Layer_1" xmlns="http://www.w3.org/2000/svg" xmlns:xlink="http://www.w3.org/1999/xlink" x="0px" y="0px"
	 viewBox="0 0 492 409.3" style="enable-background:new 0 0 492 409.3;" xml:space="preserve">
<style type="text/css">
	.st0{fill:#FFFFFF;}
</style>
<g>
	<g>
		<path class="st0" d="M484.1,185.5L306.5,7.9c-5.1-5.1-11.8-7.9-19-7.9c-7.2,0-14,2.8-19,7.9L252.2,24c-5.1,5.1-7.9,11.8-7.9,19
			c0,7.2,2.8,14.2,7.9,19.3l103.7,103.9H26.6C11.7,166.2,0,177.8,0,192.7v22.8c0,14.9,11.7,27.6,26.6,27.6h330.5L252.2,347.6
			c-5.1,5.1-7.9,11.7-7.9,18.9c0,7.2,2.8,13.9,7.9,18.9l16.1,16.1c5.1,5.1,11.8,7.8,19,7.8c7.2,0,14-2.8,19-7.9l177.7-177.7
			c5.1-5.1,7.9-11.9,7.9-19.1C492,197.4,489.2,190.6,484.1,185.5z"/>
	</g>
</g>
</svg>
